<svg width="24" height="23.922" xmlns="http://www.w3.org/2000/svg"><defs><clipPath clipPathUnits="userSpaceOnUse" id="a"><path d="M9.786 47.792c-4.2-.711-7.78-3.786-9.098-7.813-.623-1.901-.592-1.07-.592-15.926 0-12.755.009-13.47.172-14.337.478-2.534 1.47-4.407 3.292-6.215C5.26 1.814 6.922.906 9.426.295c.586-.143 1.775-.16 14.04-.19C32.756.082 37.13.102 37.732.172c5.01.575 8.924 4.15 10.08 9.202l.204.89.033 13.059c.033 13.222.013 14.26-.3 15.605a11.686 11.686 0 0 1-4.33 6.656c-1.346 1.01-2.61 1.608-4.45 2.102l-.732.197-13.857.017c-11.362.014-13.99-.005-14.594-.108z" fill="none" stroke="#000" stroke-width="2" stroke-opacity=".078"/></clipPath></defs><path d="M4.856 23.866C2.755 23.51.963 21.97.304 19.956c-.312-.951-.296-.535-.296-7.968 0-6.383.004-6.74.086-7.174.239-1.268.735-2.205 1.647-3.11C2.59.86 3.423.405 4.676.099 4.969.028 5.564.02 11.7.005 16.35-.007 18.54.003 18.84.038c2.507.288 4.466 2.076 5.045 4.605l.101.445.017 6.534c.016 6.616.006 7.136-.15 7.808a5.847 5.847 0 0 1-2.167 3.33c-.673.507-1.306.806-2.226 1.053l-.367.098-6.933.009c-5.686.007-7-.003-7.303-.054z" fill="#fff"/><path d="M9.8 48C5.6 47 2 44 .69 40 .07 38 .1 39 .1 24c0-13 0-13 .17-14.3C.75 7.2 1.7 5.3 3.6 3.5 5.3 1.8 6.9.91 9.4.29 10 .15 11 .14 23 .11 33 .08 37 .1 38 .17c5 .58 9 4.13 10 9.23V39c-1 3-2 5-5 7-1 1-2 1-4 2H9.8Z" clip-path="url(#a)" transform="scale(.5)" fill="none" stroke="#000" stroke-width="4" stroke-opacity=".078"/><path d="M9.8 48C5.6 47 2 44 .69 40 .07 38 .1 39 .1 24c0-13 0-13 .17-14.3C.75 7.2 1.7 5.3 3.6 3.5 5.3 1.8 6.9.91 9.4.29 10 .15 11 .14 23 .11 33 .08 37 .1 38 .17c5 .58 9 4.13 10 9.23V39c-1 3-2 5-5 7-1 1-2 1-4 2H9.8Z" clip-path="url(#a)" transform="scale(.5)" fill="none" stroke="#000" stroke-width="4" stroke-opacity=".078"/><circle cx="15.758" cy="8.241" r="2.25" fill="#5e3192"/><circle cx="7.981" cy="9.486" r="2" fill="#a42590"/><circle cx="14.789" cy="15.98" r="2" fill="#095baa"/><path d="m7.55 16.536 7.455-8.985L16.39 8.98l-8.84 7.557z" fill="#5e3192" stroke="#5e3192"/><path d="m7.48 16.53 1.532-7.593-2.04-.075.463 7.669" fill="#a42590" stroke="#a42590"/><path d="m7.641 16.491 7.594-1.532.075 2.04-7.669-.464" fill="#095baa" stroke="#095baa"/><circle cx="7.537" cy="16.462" r="1.5" fill="#333"/></svg>